<svg t="1759975434549" class="icon" viewBox="0 0 1038 1024" version="1.1" xmlns="http://www.w3.org/2000/svg" p-id="9905"
     width="64" height="64">
    <path d="M699.272675 898.785288c42.691315-21.000578 81.340266-48.705565 114.76372-81.734643l126.200655 126.200655H699.272675v-44.466012z m-189.300982 44.367418c66.156749-0.394377 128.961294-15.479299 185.061429-42.395533v42.395533H509.971693z m-189.300982 0v-42.395533c56.100135 26.817639 118.904679 42.001155 185.061428 42.296938v0.098595H320.670711z m-245.203929 0l126.200655-126.200655c33.423455 33.127672 72.170999 60.832659 114.76372 81.734643v44.466012H75.466782z m41.40959-243.922203c21.000578 42.691315 48.705565 81.340266 81.734643 114.76372l-126.200655 126.200655V699.230503h44.466012z m-44.466012-189.300982c0.394377 66.156749 15.479299 128.961294 42.395533 185.061428h-42.395533V509.929521z m0-189.300983h42.395533c-26.817639 56.100135-42.001155 118.904679-42.296939 185.061429h-0.098594V320.628538z m0-245.302522l126.200655 126.200655c-33.127672 33.423455-60.832659 72.170999-81.734643 114.76372H72.41036V75.326016z m244.020797 41.508184c-42.592721 21.000578-81.340266 48.705565-114.76372 81.734643l-126.200655-126.200655h240.964375v44.466012z m189.300982-44.466012c-66.156749 0.394377-128.961294 15.479299-185.061428 42.395532v-42.395532h185.061428z m189.300983 0v42.395532C638.932987 87.946081 576.128442 72.762565 509.971693 72.466782v-0.098594h185.061429z m245.203928 0l-126.200655 126.200655c-33.423455-33.127672-72.170999-60.832659-114.76372-81.734643V72.368188h240.964375z m-41.40959 244.020797c-21.000578-42.592721-48.705565-81.340266-81.734643-114.76372l126.200655-126.200655v240.964375h-44.466012z m44.367418 189.300982c-0.394377-66.156749-15.479299-128.961294-42.395533-185.061429h42.395533v185.061429z m0 189.300982h-42.395533c26.817639-56.100135 42.001155-118.904679 42.296938-185.061428h0.098595v185.061428z m-240.964375 4.239554h191.864432c-20.606201 41.508184-47.719623 79.171192-80.05854 111.805892L702.230503 699.230503z m-2.957828 2.957827l111.805892 111.805893c-32.634701 32.338918-70.297708 59.353745-111.805892 80.05854V702.18833z m-189.300982 76.903524c71.678028-0.591566 136.848835-29.085307 185.061429-75.128827v192.25881c-56.001541 27.113422-118.806085 42.395532-185.061429 42.78991V779.091854z m-189.300982-75.128827c48.212594 46.04352 113.383401 74.635856 185.061428 75.128827v159.821298C439.476796 938.61737 376.672251 923.335259 320.670711 896.221837V703.963027z m-4.239554-1.774697v191.864433c-41.508184-20.606201-79.171192-47.719623-111.805892-80.05854l111.805892-111.805893z m-2.957828-2.957827L201.667437 811.036395c-32.338918-32.634701-59.353745-70.297708-80.05854-111.805892h191.864432z m-76.903523-189.300982c0.591566 71.678028 29.085307 136.848835 75.128827 185.061428h-192.25881c-27.113422-56.001541-42.395532-118.806085-42.78991-185.061428h159.919893z m75.128827-189.300983c-46.04352 48.212594-74.635856 113.383401-75.128827 185.061429H76.649913c0.295783-66.255344 15.577893-129.059888 42.78991-185.061429h192.25881z m1.774696-4.239553H121.608897c20.606201-41.508184 47.719623-79.171192 80.05854-111.805892l111.805892 111.805892z m2.957828-2.957828L204.625265 201.625265c32.634701-32.338918 70.297708-59.353745 111.805892-80.058541v191.864433z m189.300982-76.903524c-71.678028 0.591566-136.848835 29.085307-185.061428 75.128828v-192.25881c56.001541-27.113422 118.806085-42.395532 185.061428-42.78991v159.919892z m189.300983 75.128828c-48.212594-46.04352-113.383401-74.635856-185.061429-75.128828V76.607741c66.255344 0.295783 129.059888 15.577893 185.061429 42.78991v192.25881z m4.239553 1.774696V121.566724c41.508184 20.606201 79.171192 47.719623 111.805892 80.058541L699.272675 313.431157z m2.957828 2.957828l111.805892-111.805892c32.338918 32.634701 59.353745 70.297708 80.05854 111.805892H702.230503z m76.903524 189.300982c-0.591566-71.678028-29.085307-136.848835-75.128828-185.061429h192.25881c27.113422 56.001541 42.395532 118.806085 42.78991 185.061429H779.134027z m0 4.239554h159.821297C938.659542 576.184864 923.377431 638.890815 896.264009 694.990949H704.005199c46.04352-48.311188 74.537262-113.383401 75.128828-185.061428z m-269.162334 189.300982h183.976892c-47.621028 46.339303-112.496052 75.128827-183.976892 75.621798v-75.621798z m-4.239554 0v75.621798c-71.48084-0.591566-136.257269-29.282496-183.976892-75.621798h183.976892z m-189.300982-189.300982v183.976891c-46.339303-47.621028-75.128827-112.496052-75.621798-183.976891h75.621798z m0-4.239554h-75.621798c0.591566-71.48084 29.282496-136.257269 75.621798-183.976892v183.976892z m189.300982-189.300982H321.755247c47.621028-46.339303 112.496052-75.128827 183.976892-75.621798v75.621798z m4.239554 0v-75.621798c71.48084 0.591566 136.257269 29.282496 183.976892 75.621798H509.971693z m189.300982 189.300982V321.713075c46.339303 47.621028 75.128827 112.496052 75.621798 183.976892h-75.621798z m0 4.239554h75.621798c-0.591566 71.48084-29.282496 136.257269-75.621798 183.976891V509.929521z m-189.300982 2.957827l182.103601 182.103601H509.971693V512.887348z m-4.239554 0v182.103601H323.628538l182.103601-182.103601z m-2.957827-2.957827L320.670711 692.033122V509.929521h182.103601z m0-4.239554H320.670711V323.586366l182.103601 182.103601z m2.957827-2.957828L323.628538 320.628538h182.103601v182.103601z m4.239554 0V320.628538h182.103601L509.971693 502.732139z m185.061429 7.197382v182.103601L512.929521 509.929521h182.103601z m-182.103601-4.239554l182.103601-182.103601v182.103601H512.929521z m430.265357 434.504911l-126.200655-126.200655c33.127672-33.423455 60.832659-72.170999 81.734643-114.76372h44.466012v240.964375z m80.847294 80.847294l-73.649913-73.649913h64.283458v-4.239553h-67.33988V699.230503h67.33988v-4.239554h-67.33988V509.929521h67.33988v-4.239554h-67.33988V320.628538h67.33988v-4.239553h-67.33988V72.368188h67.33988v-4.239553h-64.283458L1015.66166 2.957828l-2.957828-2.957828L947.533025 65.170807V0.887348h-4.239553v67.339881H699.272675V0.887348h-4.239553v67.339881H509.971693V0.887348h-4.239554v67.339881H320.670711V0.887348h-4.239554v67.339881H72.41036V0.887348h-4.239553v64.382053L3 0l-2.957828 2.957828 65.170807 65.170807H0.929521v4.239553h67.33988v244.020797H0.929521v4.239553h67.33988v185.061429H0.929521v4.239554h67.33988v185.061428H0.929521v4.239554h67.33988v244.020797H0.929521v4.239553h64.382052L0.042172 1012.563066l2.957828 2.957828 65.170807-65.170807v64.283458h4.239553v-67.33988h244.020797v67.33988h4.239554v-67.33988h185.061428v67.33988h4.239554v-67.33988h185.061429v67.33988h4.239553v-67.33988h244.020797v67.33988h4.239553v-64.283458l73.649914 73.649913 2.859233-2.957828z"
          fill="#9F9F9F" p-id="9906"></path>
    <path d="M507.802619 507.760447m-266.204506 0a266.204506 266.204506 0 1 0 532.409012 0 266.204506 266.204506 0 1 0-532.409012 0Z"
          fill="#FFE4C1" p-id="9907"></path>
    <path d="M507.60543 735.118814L338.812055 346.756018c56.494512-15.380705 112.890429-23.071057 169.384941-23.071057 56.395918 0 112.496052 7.690352 168.300404 23.071057L507.60543 735.118814z m4.436742 14.296168l175.59638-403.94069c1.183131-2.760639-0.295783-5.915656-3.155016-6.704409-58.466397-16.563836-117.228577-24.944348-176.385134-24.944349s-118.313114 8.281918-177.469671 24.944349c-2.859234 0.788754-4.338148 3.94377-3.155016 6.704409l175.596379 403.94069c1.676102 3.94377 7.295975 3.94377 8.972078 0z"
          fill="#262626" p-id="9908"></path>
    <path d="M507.60543 811.134989l210.695937-491.689582c-70.494897-19.127287-140.989794-28.69093-211.386096-28.69093s-140.398228 9.563643-210.104372 28.592336l210.794531 491.788176z m-9.070672 28.888119L274.232813 316.881956c-2.366262-5.422684 0.591566-11.732717 6.310033-13.310225 74.931639-21.592143 150.356249-32.437512 226.27383-32.437512s151.736568 10.845369 227.65415 32.437512c5.718467 1.676102 8.676295 7.887541 6.408627 13.40882L516.676102 840.023108c-3.450799 7.986135-14.789139 7.986135-18.141344 0z"
          fill="#262626" p-id="9909"></path>
    <path d="M264.274793 225.287888c-8.183324 2.366262-13.803197 9.859426-13.803197 18.437126v9.958021c0 1.281725 0.197189 2.464857 0.492972 3.647988 2.070479 7.197381 9.563643 11.436934 16.761024 9.366454C348.079915 244.020797 428.335644 232.583863 508.492779 232.583863c80.05854 0 159.722704 11.33834 238.893895 34.01502 1.183131 0.394377 2.464857 0.492971 3.746582 0.492971 7.39457 0 13.507414-6.01425 13.507414-13.507413V243.62642c0-8.479106-5.619873-15.97227-13.803196-18.437127-80.650106-23.958406-161.4974-35.888311-242.344695-35.888311S346.206624 201.329482 264.274793 225.287888z m-5.521279-18.930099C342.460042 181.906412 425.673599 169.58213 508.591373 169.58213c82.81918 0 165.441171 12.225688 247.964568 36.677065 16.563836 4.929713 27.902176 20.113229 27.902176 37.367225v10.056615c0 18.338533-14.887733 33.226266-33.226266 33.226266-3.056422 0-6.211438-0.394377-9.169267-1.281725C664.567495 263.443867 586.776622 252.302715 508.492779 252.302715c-78.382438 0-156.86347 11.141152-235.443097 33.423455C255.401309 290.754477 237.062777 280.40208 232.034469 262.753707 231.147121 259.795879 230.752744 256.739457 230.752744 253.683035V243.725014c0-17.253996 11.436934-32.536106 28.00077-37.367225z"
          fill="#262626" p-id="9910"></path>
    <path d="M363.716965 507.347337c45.196595-19.184471 66.298725-71.413795 47.114254-116.610391s-71.414781-66.298725-116.611377-47.114254"
          fill="#FFAA3A" p-id="9911"></path>
    <path d="M365.643497 511.885631c-2.54176 1.078621-5.385219-0.070988-6.464826-2.612748s0.070988-5.384233 2.612748-6.462854c42.745542-18.145288 62.607356-67.491716 44.501506-110.147537s-67.400023-62.646794-110.146551-44.501506c-2.54176 1.078621-5.385219-0.070988-6.46384-2.612748s0.070002-5.384233 2.610776-6.46384c47.738355-20.263093 102.812124 1.98766 123.075217 49.726016s-1.98766 102.811138-49.72503 123.075217z"
          fill="#262626" p-id="9912"></path>
    <path d="M667.80533 440.886917c-32.309339-13.714462-69.671635 1.38032-83.386096 33.689659s1.38032 69.671635 33.689659 83.386097"
          fill="#FFAA3A" p-id="9913"></path>
    <path d="M669.730876 436.348623c2.54176 1.079607 3.690383 3.924052 2.612748 6.464826s-3.924052 3.690383-6.464826 2.611762c-29.858286-12.674292-64.28543 1.310318-76.921271 31.077897s1.219611 64.247965 31.077898 76.922257c2.54176 1.078621 3.690383 3.923066 2.611762 6.46384-1.078621 2.540774-3.923066 3.690383-6.46384 2.611762-34.8511-14.793083-51.094504-54.999823-36.302407-89.849937 14.794069-34.850114 54.999823-51.094504 89.849936-36.302407z"
          fill="#262626" p-id="9914"></path>
    <path d="M558.933603 356.613472m-51.36761 0a51.36761 51.36761 0 1 0 102.73522 0 51.36761 51.36761 0 1 0-102.73522 0Z"
          fill="#FFAA3A" p-id="9915"></path>
    <path d="M558.933603 412.910795C527.777816 412.910795 502.63628 387.670664 502.63628 356.613472S527.777816 300.316149 558.933603 300.316149s56.297323 25.141537 56.297323 56.297323-25.240131 56.297323-56.297323 56.297323z m0-9.859426c25.634508 0 46.437897-20.803389 46.437897-46.437897S584.568111 310.175575 558.933603 310.175575 512.495706 330.978964 512.495706 356.613472s20.803389 46.437897 46.437897 46.437897z"
          fill="#262626" p-id="9916"></path>
    <path d="M507.567965 659.171654m-67.241287 0a67.241286 67.241286 0 1 0 134.482573 0 67.241286 67.241286 0 1 0-134.482573 0Z"
          fill="#FFAA3A" p-id="9917"></path>
    <path d="M507.567965 731.342654c-39.832082 0-72.170999-32.338918-72.171-72.171S467.735883 587.000655 507.567965 587.000655s72.170999 32.338918 72.170999 72.170999-32.338918 72.170999-72.170999 72.171z m0-9.859427c34.409397 0 62.311573-27.902176 62.311573-62.311573S541.977362 596.860081 507.567965 596.860081 445.256391 624.762257 445.256391 659.171654s27.902176 62.311573 62.311574 62.311573z"
          fill="#262626" p-id="9918"></path>
</svg>